<svg width="24" height="24" viewBox="0 0 24 24" fill="none" xmlns="http://www.w3.org/2000/svg">
<path d="M19.7 3.8C17.7 1.9 15 0.900001 12 1C5.4 1.2 1 5.7 1 12C1 17.1 3.8 23 11.8 23C18.8 23 22.9 18.9 22.9 12C23 8.7 21.8 5.8 19.7 3.8ZM17.6 9.4C16.9 10.4 16.2 11.4 15.6 12.3C13.7 15.2 12.5 17 11 17H10.8C9.4 16.9 8.2 15.4 6.3 12.4C6 11.9 6.1 11.2 6.6 10.9C7.1 10.6 7.8 10.7 8.1 11.2C9.8 13.8 10.6 14.6 10.9 14.8C11.5 14.5 12.7 12.6 13.7 11.1C14.3 10.2 15 9.2 15.7 8.1C16.1 7.6 16.7 7.5 17.2 7.8C17.9 8.2 18 8.9 17.6 9.4Z" fill="#F28C39"/>
</svg>
