<svg width="27" height="23" viewBox="0 0 27 23" fill="none" xmlns="http://www.w3.org/2000/svg">
<g opacity="0.5" clip-path="url(#clip0_63037_5537)">
<path d="M25.5471 0C25.5471 0 25.6682 0.0403482 25.9103 0.121052C26.1525 0.201779 26.3946 0.443885 26.6368 0.847369C26.8789 1.1702 27 1.77546 27 2.66316C27 3.95441 26.7982 4.76138 26.3946 5.08421C25.991 5.40704 25.7488 5.56842 25.6682 5.56842C25.5874 5.56842 25.1031 5.93158 24.2152 6.6579C23.4081 7.38421 22.8834 8.63506 22.6413 10.4105C23.3677 10.4913 23.9731 10.6526 24.4574 10.8947C24.9417 11.1368 25.3856 11.4597 25.7892 11.8632C26.3542 12.4281 26.6771 13.1544 26.7578 14.0421C26.9193 14.9298 27 15.8176 27 16.7053C27 17.7544 26.8789 18.7632 26.6368 19.7316C26.4753 20.7 25.9506 21.507 25.0628 22.1526C24.1748 22.7176 22.6816 23 20.583 23C18.1614 23 16.4664 22.5158 15.4978 21.5474C14.852 20.9824 14.4887 20.2561 14.4081 19.3684C14.3273 18.4807 14.287 17.5526 14.287 16.5842C14.287 16.1 14.287 15.6561 14.287 15.2526C14.287 14.8491 14.3273 14.4053 14.4081 13.9211C14.6502 11.4193 15.2959 9.11927 16.3453 7.02105C17.3946 4.84211 18.6861 3.14737 20.2197 1.93684C21.8341 0.645589 23.6099 0 25.5471 0ZM11.3812 0C11.3812 0 11.5023 0.0403482 11.7444 0.121052C11.9866 0.201779 12.1883 0.443885 12.3498 0.847369C12.5919 1.1702 12.713 1.77546 12.713 2.66316C12.713 3.95441 12.5112 4.76138 12.1076 5.08421C11.7847 5.40704 11.5829 5.56842 11.5023 5.56842C11.4215 5.56842 10.9372 5.93158 10.0493 6.6579C9.24214 7.38421 8.7175 8.63506 8.47535 10.4105C9.20181 10.4913 9.80719 10.6526 10.2915 10.8947C10.7758 11.1368 11.2197 11.4597 11.6233 11.8632C12.1883 12.4281 12.5112 13.1544 12.5919 14.0421C12.7533 14.9298 12.8341 15.8176 12.8341 16.7053C12.8341 17.7544 12.713 18.7632 12.4709 19.7316C12.3094 20.7 11.7847 21.507 10.8969 22.1526C10.0089 22.7176 8.51569 23 6.41706 23C3.99554 23 2.26009 22.5158 1.21077 21.5474C0.645744 20.9824 0.282516 20.2561 0.121084 19.3684C0.0403636 18.4807 0 17.5526 0 16.5842C0 16.1 0 15.6561 0 15.2526C0.0807199 14.8491 0.16144 14.4053 0.24216 13.9211C0.484312 11.4193 1.13005 9.11927 2.17938 7.02105C3.22867 4.84211 4.52017 3.14737 6.05383 1.93684C7.66815 0.645589 9.44396 0 11.3812 0Z" fill="#F4A25E"/>
</g>
<defs>
<clipPath id="clip0_63037_5537">
<rect width="27" height="23" fill="white"/>
</clipPath>
</defs>
</svg>
