<svg width="148" height="60" viewBox="0 0 148 60" fill="none" xmlns="http://www.w3.org/2000/svg">
<g clip-path="url(#clip0_62884_13482)">
<path fill-rule="evenodd" clip-rule="evenodd" d="M19.0015 58.2845C15.361 59.934 12.3681 58.1668 10.2679 56.2589C9.18394 55.2641 7.44539 53.9682 7.69931 52.9644C12.8598 51.9777 18.3639 53.8974 19.0015 58.2845ZM13.0701 50.9027C7.00472 51.886 4.4832 47.1994 2.66503 43.4912C8.61209 43.8601 12.7663 45.7374 13.0701 50.9027ZM21.5129 58.151C17.9791 55.3524 20.244 47.8803 22.8149 45.2625C24.6359 48.5589 26.0587 56.3116 21.5129 58.151ZM15.5571 50.9521C12.8692 46.5538 16.2713 40.796 19.1507 38.4491C20.7617 42.627 19.999 50.2053 15.5571 50.9521ZM10.029 43.0421C5.66892 43.5185 3.48417 40.6781 2.07401 38.1914C1.3836 36.9704 0.510506 35.4643 0.969734 34.4868C5.89474 35.7166 10.2 37.481 10.029 43.0421ZM17.0621 29.7635C18.2175 34.8772 16.6648 41.2341 12.0906 41.7843C10.0112 36.5057 14.0303 31.9541 17.0621 29.7635ZM8.08104 34.9323C3.27726 33.6458 1.81274 28.648 2.50918 23.2507C5.95363 25.6462 10.1514 28.9234 8.08104 34.9323ZM10.6772 31.5514C9.86544 25.3577 14.3231 22.6274 18.2083 20.8395C17.6862 26.8072 15.7737 31.1058 10.669 31.5507M8.51801 25.7612C4.4641 24.1618 4.77953 16.5696 7.31614 13.0153C9.6822 15.8716 12.1593 22.1101 8.51801 25.7612ZM13.6876 19.5441C14.2057 13.433 18.9068 12.3809 23.5117 11.1942C21.8294 15.8998 19.8542 20.2518 13.6876 19.5441ZM11.3957 15.3655C8.13059 12.4389 10.1972 4.76447 13.0521 2.50796C14.8992 6.07575 15.8171 13.5235 11.3957 15.3655ZM16.6371 10.4162C16.7847 3.7933 21.4165 2.58374 25.6653 0.911743C24.4361 6.22888 22.3506 10.5123 16.6371 10.4162Z" fill="white"/>
</g>
<g clip-path="url(#clip1_62884_13482)">
<path d="M69.8433 20.8802V25.8082H66.1193V31.2962H60.958V25.8082H48.6426V21.7388L59.4226 5.16284H64.976L54.9799 20.8802H61.1213V15.9895H66.1193V20.8802H69.8433ZM75.0694 31.5949C73.3054 31.5949 71.9007 30.0642 71.9007 27.9362C71.9007 25.7708 73.3054 24.3522 75.0694 24.3522C76.8334 24.3522 78.2381 25.7708 78.2381 27.9362C78.2381 30.0642 76.8334 31.5949 75.0694 31.5949ZM96.5799 17.5575C98.8013 18.8268 100.075 20.9175 100.075 23.7175C100.075 28.6455 96.2206 31.7442 90.4059 31.7442C84.6239 31.7442 80.8019 28.6455 80.8019 23.7175C80.8019 20.9175 82.0759 18.8268 84.2646 17.5575C82.5659 16.3628 81.6186 14.5335 81.6186 12.1815C81.6186 7.58951 85.2119 4.71484 90.4059 4.71484C95.6653 4.71484 99.2586 7.58951 99.2586 12.1815C99.2586 14.5335 98.2786 16.3628 96.5799 17.5575ZM90.4059 9.15751C88.2826 9.15751 86.8779 10.3895 86.8779 12.4428C86.8779 14.4215 88.2499 15.6535 90.4059 15.6535C92.5946 15.6535 93.9993 14.4215 93.9993 12.4428C93.9993 10.3895 92.5619 9.15751 90.4059 9.15751ZM90.4059 27.3015C93.0519 27.3015 94.7179 25.8455 94.7179 23.5308C94.7179 21.2162 93.0519 19.7975 90.4059 19.7975C87.7926 19.7975 86.1593 21.2162 86.1593 23.5308C86.1593 25.8455 87.7926 27.3015 90.4059 27.3015Z" fill="white"/>
</g>
<path d="M42.0023 40.3706C43.1223 40.3706 44.2623 44.0573 44.409 44.2573C44.5557 44.4573 48.769 44.7039 48.849 45.3439C48.929 45.9839 45.949 48.5373 45.8957 48.8373C45.8424 49.1373 47.1157 52.6306 46.229 53.3973C45.3424 54.1639 42.309 51.6973 41.9957 51.6706C41.6823 51.6439 38.789 53.9506 37.7623 53.3973C36.7357 52.8439 38.2157 49.2039 38.0957 48.8373C37.9757 48.4706 34.9823 46.3506 35.1557 45.3439C35.329 44.3373 39.3823 44.4239 39.5957 44.2573C39.809 44.0906 40.8823 40.3706 42.0023 40.3706Z" fill="white"/>
<path d="M58.0023 40.3706C59.1223 40.3706 60.2623 44.0573 60.409 44.2573C60.5557 44.4573 64.769 44.7039 64.849 45.3439C64.929 45.9839 61.949 48.5373 61.8957 48.8373C61.8424 49.1373 63.1157 52.6306 62.229 53.3973C61.3424 54.1639 58.309 51.6973 57.9957 51.6706C57.6823 51.6439 54.789 53.9506 53.7623 53.3973C52.7357 52.8439 54.2157 49.2039 54.0957 48.8373C53.9757 48.4706 50.9823 46.3506 51.1557 45.3439C51.329 44.3373 55.3823 44.4239 55.5957 44.2573C55.809 44.0906 56.8823 40.3706 58.0023 40.3706Z" fill="white"/>
<path d="M74.0023 40.3706C75.1223 40.3706 76.2623 44.0573 76.409 44.2573C76.5557 44.4573 80.769 44.7039 80.849 45.3439C80.929 45.9839 77.949 48.5373 77.8957 48.8373C77.8424 49.1373 79.1157 52.6306 78.229 53.3973C77.3424 54.1639 74.309 51.6973 73.9957 51.6706C73.6823 51.6439 70.789 53.9506 69.7623 53.3973C68.7357 52.8439 70.2157 49.2039 70.0957 48.8373C69.9757 48.4706 66.9823 46.3506 67.1557 45.3439C67.329 44.3373 71.3823 44.4239 71.5957 44.2573C71.809 44.0906 72.8823 40.3706 74.0023 40.3706Z" fill="white"/>
<path d="M90.0023 40.3706C91.1223 40.3706 92.2623 44.0573 92.409 44.2573C92.5557 44.4573 96.769 44.7039 96.849 45.3439C96.929 45.9839 93.949 48.5373 93.8957 48.8373C93.8424 49.1373 95.1157 52.6306 94.229 53.3973C93.3424 54.1639 90.309 51.6973 89.9957 51.6706C89.6823 51.6439 86.789 53.9506 85.7623 53.3973C84.7357 52.8439 86.2157 49.2039 86.0957 48.8373C85.9757 48.4706 82.9823 46.3506 83.1557 45.3439C83.329 44.3373 87.3823 44.4239 87.5957 44.2573C87.809 44.0906 88.8823 40.3706 90.0023 40.3706Z" fill="white"/>
<path d="M106.002 40.3706C107.122 40.3706 108.262 44.0573 108.409 44.2573C108.556 44.4573 112.769 44.7039 112.849 45.3439C112.929 45.9839 109.949 48.5373 109.896 48.8373C109.842 49.1373 111.116 52.6306 110.229 53.3973C109.342 54.1639 106.309 51.6973 105.996 51.6706C105.682 51.6439 102.789 53.9506 101.762 53.3973C100.736 52.8439 102.216 49.2039 102.096 48.8373C101.976 48.4706 98.9823 46.3506 99.1557 45.3439C99.329 44.3373 103.382 44.4239 103.596 44.2573C103.809 44.0906 104.882 40.3706 106.002 40.3706Z" fill="white"/>
<g clip-path="url(#clip2_62884_13482)">
<path fill-rule="evenodd" clip-rule="evenodd" d="M128.997 58.2845C132.637 59.934 135.63 58.1668 137.73 56.2589C138.814 55.2641 140.553 53.9682 140.299 52.9644C135.138 51.9777 129.634 53.8974 128.997 58.2845ZM134.928 50.9027C140.993 51.886 143.515 47.1994 145.333 43.4912C139.386 43.8601 135.232 45.7374 134.928 50.9027ZM126.485 58.151C130.019 55.3524 127.754 47.8803 125.183 45.2625C123.362 48.5589 121.939 56.3116 126.485 58.151ZM132.441 50.9521C135.129 46.5538 131.727 40.796 128.847 38.4491C127.236 42.627 127.999 50.2053 132.441 50.9521ZM137.969 43.0421C142.329 43.5185 144.514 40.6781 145.924 38.1914C146.614 36.9704 147.488 35.4643 147.028 34.4868C142.103 35.7166 137.798 37.481 137.969 43.0421ZM130.936 29.7635C129.781 34.8772 131.333 41.2341 135.907 41.7843C137.987 36.5057 133.968 31.9541 130.936 29.7635ZM139.917 34.9323C144.721 33.6458 146.185 28.648 145.489 23.2507C142.044 25.6462 137.847 28.9234 139.917 34.9323ZM137.321 31.5514C138.133 25.3577 133.675 22.6274 129.79 20.8395C130.312 26.8072 132.224 31.1058 137.329 31.5507M139.48 25.7612C143.534 24.1618 143.219 16.5696 140.682 13.0153C138.316 15.8716 135.839 22.1101 139.48 25.7612ZM134.31 19.5441C133.792 13.433 129.091 12.3809 124.486 11.1942C126.169 15.8998 128.144 20.2518 134.31 19.5441ZM136.602 15.3655C139.867 12.4389 137.801 4.76447 134.946 2.50796C133.099 6.07575 132.181 13.5235 136.602 15.3655ZM131.361 10.4162C131.213 3.7933 126.582 2.58374 122.333 0.911743C123.562 6.22888 125.647 10.5123 131.361 10.4162Z" fill="white"/>
</g>
<defs>
<clipPath id="clip0_62884_13482">
<rect width="27.2727" height="60" fill="white" transform="translate(0.726562)"/>
</clipPath>
<clipPath id="clip1_62884_13482">
<rect width="54" height="28" fill="white" transform="translate(47 4.62915)"/>
</clipPath>
<clipPath id="clip2_62884_13482">
<rect width="27.2727" height="60" fill="white" transform="matrix(-1 0 0 1 147.271 0)"/>
</clipPath>
</defs>
</svg>
