<svg width="132" height="24" viewBox="0 0 132 24" fill="none" xmlns="http://www.w3.org/2000/svg">
<path d="M12.0035 1.5C13.6835 1.5 15.3935 7.03 15.6135 7.33C15.8335 7.63 22.1535 8 22.2735 8.96C22.3935 9.92 17.9235 13.75 17.8435 14.2C17.7635 14.65 19.6735 19.89 18.3435 21.04C17.0135 22.19 12.4635 18.49 11.9935 18.45C11.5235 18.41 7.18352 21.87 5.64352 21.04C4.10352 20.21 6.32352 14.75 6.14352 14.2C5.96352 13.65 1.47352 10.47 1.73352 8.96C1.99352 7.45 8.07352 7.58 8.39352 7.33C8.71352 7.08 10.3235 1.5 12.0035 1.5Z" fill="#FFC91E" stroke="#FFC91E" stroke-width="2" stroke-linecap="round" stroke-linejoin="round"/>
<path d="M39.0035 1.5C40.6835 1.5 42.3935 7.03 42.6135 7.33C42.8335 7.63 49.1535 8 49.2735 8.96C49.3935 9.92 44.9235 13.75 44.8435 14.2C44.7635 14.65 46.6735 19.89 45.3435 21.04C44.0135 22.19 39.4635 18.49 38.9935 18.45C38.5235 18.41 34.1835 21.87 32.6435 21.04C31.1035 20.21 33.3235 14.75 33.1435 14.2C32.9635 13.65 28.4735 10.47 28.7335 8.96C28.9935 7.45 35.0735 7.58 35.3935 7.33C35.7135 7.08 37.3235 1.5 39.0035 1.5Z" fill="#FFC91E" stroke="#FFC91E" stroke-width="2" stroke-linecap="round" stroke-linejoin="round"/>
<path d="M66.0035 1.5C67.6835 1.5 69.3935 7.03 69.6135 7.33C69.8335 7.63 76.1535 8 76.2735 8.96C76.3935 9.92 71.9235 13.75 71.8435 14.2C71.7635 14.65 73.6735 19.89 72.3435 21.04C71.0135 22.19 66.4635 18.49 65.9935 18.45C65.5235 18.41 61.1835 21.87 59.6435 21.04C58.1035 20.21 60.3235 14.75 60.1435 14.2C59.9635 13.65 55.4735 10.47 55.7335 8.96C55.9935 7.45 62.0735 7.58 62.3935 7.33C62.7135 7.08 64.3235 1.5 66.0035 1.5Z" fill="#FFC91E" stroke="#FFC91E" stroke-width="2" stroke-linecap="round" stroke-linejoin="round"/>
<path d="M93.0035 1.5C94.6835 1.5 96.3935 7.03 96.6135 7.33C96.8335 7.63 103.154 8 103.274 8.96C103.394 9.92 98.9235 13.75 98.8435 14.2C98.7635 14.65 100.674 19.89 99.3435 21.04C98.0135 22.19 93.4635 18.49 92.9935 18.45C92.5235 18.41 88.1835 21.87 86.6435 21.04C85.1035 20.21 87.3235 14.75 87.1435 14.2C86.9635 13.65 82.4735 10.47 82.7335 8.96C82.9935 7.45 89.0735 7.58 89.3935 7.33C89.7135 7.08 91.3235 1.5 93.0035 1.5Z" fill="#FFC91E" stroke="#FFC91E" stroke-width="2" stroke-linecap="round" stroke-linejoin="round"/>
<path d="M120.004 1.5C121.684 1.5 123.394 7.03 123.614 7.33C123.834 7.63 130.154 8 130.274 8.96C130.394 9.92 125.924 13.75 125.844 14.2C125.764 14.65 127.674 19.89 126.344 21.04C125.014 22.19 120.464 18.49 119.994 18.45C119.524 18.41 115.184 21.87 113.644 21.04C112.104 20.21 114.324 14.75 114.144 14.2C113.964 13.65 109.474 10.47 109.734 8.96C109.994 7.45 116.074 7.58 116.394 7.33C116.714 7.08 118.324 1.5 120.004 1.5Z" fill="#FFC91E" stroke="#FFC91E" stroke-width="2" stroke-linecap="round" stroke-linejoin="round"/>
</svg>
